<?xml version="1.0" standalone="no"?>
<!DOCTYPE svg PUBLIC "-//W3C//DTD SVG 1.1//EN" "http://www.w3.org/Graphics/SVG/1.1/DTD/svg11.dtd" >
<svg xmlns="http://www.w3.org/2000/svg" xmlns:xlink="http://www.w3.org/1999/xlink" version="1.1" viewBox="0 0 674 674">
<rect x="0" y="15" rx="20" ry="20" width="100%" height="95%" fill="black" />
<path fill="white" transform="scale(1,-1) translate(0,-600)" 
d="M52 -11q-2 0 -6 4q-5 4 -6 6q-2 5 -4.5 10.5t-3.5 11.5v2v1q1 10 1 20t1 20v28v29q-1 28 -3 57t-3 58q-1 30 -0.5 60t1.5 60q0 10 0.5 19t0.5 18v80q0 2 -1 6q0 12 1.5 23.5t10.5 21.5q10 10 21 11.5t24 1.5h4h9.5h9.5h21.5h21.5h36t36 -1v0h4q13 0 24.5 -1.5t20.5 -11.5
q6 -6 8 -13l17 -3q14 10 30 18q18 13 47.5 18.5t60 5t50.5 -7.5q23 -5 44.5 -13.5t39.5 -23.5h1v0q25 -22 40 -54t27 -62v0l1 -1q6 -21 10 -42t5 -43q1 -12 1 -24.5v-24.5v-13.5v-13.5v-12t1 -12v-38.5t-1 -39.5v0v0q-1 -20 -2.5 -39.5t-2.5 -39.5v-7q-1 -11 -2.5 -21.5
t-10.5 -19.5q-9 -10 -20 -11.5t-23 -1.5h-4h-37h-37q-19 1 -38 0.5t-39 -0.5h-5q-13 0 -25 1t-23 10q-6 5 -9 12t-5 14q-2 6 -2.5 11.5t-0.5 11.5q-2 21 -2 40v0v0q0 39 2 79.5t6 79.5q1 20 1 38v6q0 7 -0.5 15t-2.5 15q-3 9 -7 13q-9 10 -27 11t-27 -9q-8 -10 -8.5 -24
t0.5 -28q1 -4 1 -8v-8q0 -13 0.5 -26t0.5 -27q1 -12 1 -24v-24q0 -16 -0.5 -32.5t-1.5 -32.5q0 -4 -0.5 -8t-0.5 -8q0 -10 -0.5 -20t-0.5 -20v-7q0 -12 -1.5 -23t-10.5 -21q-10 -10 -21.5 -11.5t-24.5 -0.5h-4q-10 0 -20 1q-37 2 -75 3t-75 2h-1l-2 1zM455 523l-25 2h-4
l15 -30l30 25q-7 2 -16 3zM380 498l53 -4l-15 29zM352 507l16 -7l29 19zM448 490l58 -21l-23 48q-1 0 -2 1zM84 513q4 0 5 4h-1l-14 -4h10zM493 515l12 -25l-4 22q-4 2 -8 3zM104 513l42 -41l16 41h-11h-20.5h-21.5h-5zM177 513l10 -27l27 26q-9 1 -18.5 1h-18.5zM233 513
l5 -29l23 5q0 12 -5 17q-4 5 -10.5 6t-12.5 1zM225 512l-29 -29h34zM96 484l37 -11l-37 37v-26zM181 481l-12 28l-15 -37zM517 467l20 7l-27 32zM521 505l18 -21l-1 13q-8 5 -17 8zM75 489l-19 16q-2 -4 -3 -10zM324 494l30 4l-13 6zM283 504q1 -3 2 -7q3 3 6 5zM565 476
l-16 14l-2 2l1 -17l23 -6q-3 4 -6 7zM402 417l34 70l-65 5zM54 435l32 45l-33 9v-9q0 -4 1 -6v-39zM443 486l16 -51l48 27zM353 409l43 6l-27 67zM238 476l30 -70l30 71q-4 -3 -8 -7q-3 -2 -6 -8q-3 -4 -6 -7t-9 -3q-10 0 -10 5.5t1 11.5q1 5 1 7v4zM274 405l68 3l-37 71z
M439 478l-29 -59l43 14zM142 464l-45 14l11 -52zM189 476l19 -59l24 60zM151 464q0 -1 -1 -1l-1 -2l-1 -32l33 46zM103 422l-14 52l-35 -50v-6v3l36 50zM153 426l49 -10l-17 54zM549 469l34 -49l2 27q-4 8 -9 15zM518 461l7 -26l15 34zM214 414l47 -8l-26 62zM545 464
l-16 -35l47 -9zM468 431l43 25l9 -28l-9 30zM143 455l-28 -30l27 2zM591 438l-2 -21l13 -3q-6 13 -11 24zM517 422l-54 4l18 -74zM453 424l-45 -14l29 -55zM528 421l12 -65l38 55zM142 419l-30 -3l33 -58zM202 408l-44 9l29 -32zM97 415l-43 -3v-20v-6l3 -25zM533 350
l-12 64l-34 -69zM475 345l-17 68l-15 -65zM143 346l-38 67l-43 -59zM182 379l-31 33l3 -62zM585 408l-37 -54l65 23zM605 407q2 -6 4.5 -12t8.5 -14l-1 14l-3 10zM392 407l-36 -6l17 -19zM245 383l-36 22l-14 -22h50zM429 353l-28 52l-22 -28zM262 398l-35 6l30 -19z
M338 400l-60 -3l30 -27zM365 379l-17 19l-28 -28zM262 381v0q0 -1 1 -1l34 -8zM255 377l-64 -1l23 -67zM305 361l-42 13l17 -61q1 9 4 18t10 16q2 3 5 6t6 8zM380 351l-10 22l-36 -8q27 2 46 -14zM402 313h1l30 31l-56 28zM154 341v-1l-1 -1l13 -22l17 55zM258 369l-38 -63
l60 -22v9zM171 315l37 -6l-20 57zM618 363l-35 -65l46 -10zM146 339l-83 9l57 -37zM53 348h-1v-15zM57 319l46 -6l-44 31zM535 344v0l-51 -6l44 -46zM477 337q0 1 -1 1l-33 4l31 -39zM411 312l54 -9l-27 35zM534 293l36 5l-29 38zM149 334l-20 -22l31 3zM479 301l39 -7
l-35 37zM59 310l18 -65l35 59zM123 303l3 -56l33 60zM173 307l35 -67l2 61zM408 304l20 -54l39 45zM205 230l-39 74l-37 -68zM221 297l17 -40l41 19zM70 240l-15 54l-4 -33q0 -9 1 -18zM421 245l-18 49l-3 -18q0 -16 -1 -33zM119 237l-3 57l-33 -55zM480 293l6 -38l34 31z
M572 290l-35 -5l27 -29zM478 251l-6 38l-36 -42zM628 280l-37 8l29 -25zM612 260l-33 28l-8 -35zM231 253l-13 32l-2 -49zM557 252l-28 30l-35 -31zM281 269l-33 -16l33 -9v20v5zM631 260l-6 -5h-1v-1l7 -44v15v14v14v7zM618 249l-44 -48l55 -11zM562 246l-75 -1l51 -75z
M480 245l-48 -5l35 -60zM237 243l-23 -62l55 16zM230 243l-14 -18v-1q0 -1 -2 -3l-3 -31zM416 193l7 47l-25 -3q0 -5 -1 -10zM282 217v6l4 14l-5 1q1 -6 1 -15l-7 -24h1zM73 233q-1 0 -1 1l-20 3v0q0 -13 1 -28l5 -27zM485 237l-13 -63l58 -6zM119 231l-39 2l30 -38l10 35
q0 1 -1 1zM423 185l6 45l34 -56l-35 59zM171 195v1l36 27l-78 7zM78 226l-14 -46l40 13zM125 226l-9 -31l44 1zM562 223l-13 -39l13 16v23zM394 185l19 2l-16 29q-2 -15 -3 -31zM178 193l26 -12l3 35zM282 205l-3 -11v-1l-1 -1l5 -29v21t-1 21zM576 193l42 -57l11 46z
M543 163l22 -43l-3 68zM119 187l28 -42l17 43zM614 128l-43 58l3 -77zM104 185l-39 -13l24 -28zM178 184l21 -44l4 33zM273 184l-29 -52l38 -4q1 3 1 6zM140 141l-28 41l-16 -42zM194 132l-24 50l-17 -42zM393 140l19 39l-18 -2q-1 -5 -1 -10v-27zM458 169l-35 10l1 -33z
M416 140l-1 28l-17 -36zM529 160l-57 6l9 -55zM83 138l-23 28l-4 -14q1 -11 2 -20zM473 111l-9 53l-37 -26zM231 132l-21 32l-4 -34zM563 107l-26 49l-49 -49h75zM630 130v21l-5 -20zM117 50l27 85l-51 -2zM417 134l-24 -13l24 -36v49zM458 54l16 49l-50 30zM58 77l28 56
l-28 -8v-4v-22v-22zM235 127l-30 -3h-1l26 -61zM242 126l25 -57l15 40v13zM57 50l55 -3l-23 78l-31 -62q-1 -8 -1 -13zM148 125l-24 -72l40 27zM631 124l-8 -1l6 -27q1 7 1.5 14t0.5 14zM450 59l-26 60l-1 -38zM175 80l49 -18l-24 56zM236 60l25 7l-20 46zM620 110l-13 -50
l20 8q0 4 1 8zM393 110v-53l21 22zM562 101h-76l30 -26zM525 73l68 -14l-24 39zM478 97l-12 -47l14 46l30 -24zM281 89l-10 -26l1 -12l7 -28q1 3 0.5 6t-0.5 6v7q0 10 0.5 20t0.5 21q0 3 1 6zM453 8l1 3l-30 61zM174 72l8 -59l42 40zM449 3l-3 5h2l-30 62l28 -62h-7h-7
q-8 -1 -16 -0.5t-14 6.5q-1 0 -1 -5zM122 41l8 -30l28 55zM174 9l-7 56l-30 -57q11 -1 20 -1zM527 64l44 -40l23 26zM398 24l12 39l-17 -18zM465 43l9 -33l30 52zM607 51l17 -31l2 16v3v7v13zM238 53l30 -35l-5 41zM618 13l-18 33l-21 -25zM72 24l30 16l-45 2v-2zM117 8h2.5
h3.5l-9 29l-33 -17zM467 8l-5 18l-3 -18h8zM60 15l6 3l-9 3zM478 5l19 3q6 1 11 0l57 13l-68 -13h-8.5t-10.5 -3zM610 9l-36 6q-1 0 -1 -1l-1 -6h18h6h7t7 1zM96 9l-17 5l5 -5h12zM70 14l-5 -3l7 -2h3zM566 12l-13 -4q3 0 6.5 0.5t6.5 3.5zM184 7h62l14 2z" />
</svg>